<svg xmlns="http://www.w3.org/2000/svg" viewBox="0 0 271.29 53.38"><defs><style>.cls-1{fill:#fff;}.cls-2{fill:#ab852e;}.cls-3{fill:#ab852f;}</style></defs><title>mj law logo white</title><g id="Layer_2" data-name="Layer 2"><g id="Layer_1-2" data-name="Layer 1"><path class="cls-1" d="M120.94,45.76h-.16L111.61,32V53H106.5V23.65H112l8.92,13.86,8.92-13.86h5.49V53H130.2v-21Z"/><path class="cls-1" d="M157.6,47.54a9.09,9.09,0,0,1-2,3.24,8.26,8.26,0,0,1-3.1,1.95,11.74,11.74,0,0,1-4,.65A10.87,10.87,0,0,1,142.84,52a12.45,12.45,0,0,1-3.72-3.37l3.39-3.48a11.74,11.74,0,0,0,2.65,2.53,5.76,5.76,0,0,0,3.25.9,4.31,4.31,0,0,0,3.37-1.4,6.27,6.27,0,0,0,1.28-4.33V23.65h5.27V43A12.89,12.89,0,0,1,157.6,47.54Z"/><path class="cls-1" d="M176.29,23.65h5.11V48.31h15.41V53H176.29Z"/><path class="cls-1" d="M229.42,53H224l-3-7.08H207.15l-3,7.08h-5.28l12.9-29.52h4.77ZM214.06,29.6l-5,11.72h10.09Z"/><path class="cls-1" d="M265.89,23.65l-7,21.73-7.24-21.94h-4.27l-7.25,21.94-7-21.73h-5.57L237.73,53h4.58l7.13-20.85L256.56,53h4.59l10.14-29.31Z"/><path class="cls-2" d="M41.89,0l-16,24.88L9.85,0H0V52.62H9.17V15L25.63,39.7h.29L42.57,14.89V40.14l4-4S50,39.82,51.73,41.3V0Z"/><path class="cls-2" d="M65.47,0V34.51c0,3.51-.79,6.12-2.29,7.81a7.8,7.8,0,0,1-6,2.5c-.47,0-.94,0-1.37-.07a9.82,9.82,0,0,1-4.47-1.54,21,21,0,0,1-4.69-4.47l-.07-.08-6.12,6.23a21.92,21.92,0,0,0,6.19,5.73,3.92,3.92,0,0,0,.5.32,16.17,16.17,0,0,0,4,1.69,23.31,23.31,0,0,0,6.16.75,21.43,21.43,0,0,0,7.12-1.15A15.31,15.31,0,0,0,70,48.72a16.65,16.65,0,0,0,3.65-5.83,23.53,23.53,0,0,0,1.29-8.16V0Z"/><path class="cls-3" d="M79.6,53.38V43.54h9.55v9.84Z"/></g></g></svg>