<?xml version="1.0" encoding="utf-8"?>
<!-- Generator: Adobe Illustrator 23.0.3, SVG Export Plug-In . SVG Version: 6.00 Build 0)  -->
<svg version="1.1" id="Layer_1" xmlns="http://www.w3.org/2000/svg" xmlns:xlink="http://www.w3.org/1999/xlink" x="0px" y="0px"
	 viewBox="0 0 682 682" style="enable-background:new 0 0 682 682;" xml:space="preserve">
<style type="text/css">
	.st0{fill:#820024;}
</style>
<path class="st0" d="M283.3,205.5c0.3,0.2,0.6,0.5,1,0.7c1.4,0.9,2.9,1.7,4.3,2.5c0.5,0.3,0.9,0.5,1.4,0.7c0.7,0.4,1.5,0.8,2.2,1.1
	c0.6,0.3,1.3,0.6,1.9,1c0.8,0.4,1.5,0.7,2.3,1c0.9,0.4,1.7,0.7,2.6,1.1c0.9,0.4,1.9,0.7,2.8,1.1c0.5,0.2,0.9,0.3,1.4,0.5
	c1.1,0.4,2.2,0.8,3.3,1.1c0.3,0.1,0.5,0.2,0.8,0.2c1.4,0.4,2.9,0.9,4.3,1.2c0.2,0.1,0.5,0.1,0.7,0.2c1.2,0.3,2.3,0.6,3.5,0.8
	c0.4,0.1,0.9,0.2,1.3,0.3c1.2,0.2,2.3,0.4,3.5,0.6c5.3,0.9,10.6,1.3,16.1,1.3c17.6,0,34.2-4.6,48.6-12.7c2.6-1.4,4.1-2.4,4.5-2.6
	c0.2-0.1,0.4-0.3,0.6-0.4c27.8-17.8,46.3-48.9,46.3-84.3c0-55.1-44.9-100-100-100c-55.1,0-100,44.9-100,100
	C236.7,156.5,255.4,187.7,283.3,205.5z M331.1,124v-14c0-3.3,2.7-6,6.1-6c3.3,0,6,2.7,6,6v14c0,3.3-2.6,5.9-5.8,6h-0.5
	C333.7,129.9,331.1,127.3,331.1,124z M319.7,155h16.5c0.3,0,0.6,0,0.9,0c0.3,0,0.6,0,0.9,0h16c4.2,0,8.1,2.1,10.4,5.7
	c3.9,6.1,6,13.2,6,20.4v6.8c-11.3,5.4-38.2,14.6-67.3,0.2v-7c0-7.3,2.1-14.3,6-20.4C311.6,157.1,315.5,155,319.7,155z M336.8,46
	c41.4,0,75,33.7,75,75c0,18.3-6.6,35-17.5,48.1c-1.5-7.8-4.5-15.2-8.8-21.9c-4.5-7-11-12.1-18.5-14.8c0.7-2.7,1.1-5.4,1.1-8.3v-14
	c0-17.1-13.9-31-31-31c-17.1,0-31,13.9-31,31v14c0,2.8,0.4,5.6,1.1,8.2c-7.7,2.7-14.3,7.9-18.9,15c-4.4,6.8-7.4,14.3-8.9,22.1
	c-11-13.1-17.7-29.9-17.7-48.3C261.7,79.6,295.4,46,336.8,46z"/>
<path class="st0" d="M628.4,259.1c0-12.9-2.4-25.5-7.2-37.4c-0.2-0.4-0.4-0.9-0.5-1.3c-0.3-0.7-0.6-1.3-0.9-2
	c-2.8-6.3-10.2-9.1-16.5-6.3c-6.3,2.8-9.1,10.2-6.3,16.5c0.2,0.5,0.4,1,0.6,1.5c0.1,0.3,0.3,0.7,0.4,1c3.6,8.9,5.4,18.4,5.4,28.1
	c0,18.3-6.6,35-17.5,48.1c-1.5-7.8-4.5-15.2-8.8-21.9c-4.5-7-11-12.1-18.5-14.8c0.7-2.7,1.1-5.4,1.1-8.3v-14c0-17.1-13.9-31-31-31
	c-17.1,0-31,13.9-31,31v14c0,2.8,0.4,5.6,1.1,8.2c-7.7,2.7-14.3,7.9-18.9,15c-4.4,6.8-7.4,14.3-8.9,22.1
	c-11-13.1-17.7-29.9-17.7-48.3c0-41.4,33.7-75,75-75c0.8,0,1.5,0,2.3,0c0.1,0,0.3,0,0.4,0c6.7,0,12.3-5.4,12.5-12.1
	c0.2-6.9-5.2-12.7-12.1-12.9c-1,0-2,0-3.1,0c-55.1,0-100,44.9-100,100c0,35.5,18.6,66.7,46.6,84.5c0.3,0.2,0.6,0.5,0.9,0.7
	c1.4,0.9,2.9,1.7,4.3,2.5c0.5,0.3,0.9,0.5,1.4,0.7c0.7,0.4,1.5,0.8,2.2,1.1c0.7,0.3,1.3,0.6,2,1c0.7,0.4,1.5,0.7,2.2,1
	c0.9,0.4,1.8,0.8,2.7,1.1c0.9,0.4,1.8,0.8,2.8,1.1c0.5,0.2,0.9,0.3,1.4,0.5c1.1,0.4,2.2,0.8,3.3,1.1c0.3,0.1,0.5,0.2,0.8,0.3
	c1.4,0.4,2.9,0.8,4.3,1.2c0.3,0.1,0.5,0.1,0.8,0.2c1.2,0.3,2.3,0.6,3.5,0.8c0.4,0.1,0.9,0.2,1.3,0.3c1.2,0.2,2.3,0.4,3.5,0.6
	c5.3,0.9,10.7,1.3,16.2,1.3c17.6,0,34.2-4.6,48.6-12.7c2.6-1.4,4.1-2.4,4.5-2.6c0.2-0.1,0.4-0.3,0.6-0.5
	C609.8,325.6,628.4,294.5,628.4,259.1z M522.6,248.1c0-3.3,2.7-6,6-6c3.3,0,6.1,2.7,6.1,6v14c0,3.3-2.6,5.9-5.8,6h-0.5
	c-3.2-0.1-5.8-2.8-5.8-6V248.1z M494.8,319.2c0-7.3,2.1-14.3,6-20.4c2.3-3.6,6.2-5.7,10.4-5.7h16.5c0.3,0,0.6,0,0.9,0
	c0.3,0,0.6,0,0.9,0h16.1c4.2,0,8.1,2.1,10.4,5.7c3.9,6.1,6,13.2,6,20.4v6.8c-11.3,5.4-38.2,14.6-67.3,0.2V319.2z"/>
<path class="st0" d="M250.6,259.1c0-55.1-44.9-100-100-100c-55.1,0-100,44.9-100,100c0,35.5,18.6,66.7,46.6,84.5
	c0.3,0.2,0.6,0.5,1,0.7c1.4,0.9,2.9,1.7,4.3,2.5c0.5,0.3,0.9,0.5,1.4,0.7c0.7,0.4,1.5,0.8,2.2,1.1c0.7,0.3,1.3,0.7,2,1
	c0.7,0.3,1.5,0.7,2.2,1c0.9,0.4,1.8,0.8,2.7,1.1c0.9,0.4,1.8,0.8,2.8,1.1c0.5,0.2,0.9,0.3,1.4,0.5c1.1,0.4,2.2,0.8,3.3,1.1
	c0.3,0.1,0.5,0.2,0.8,0.3c1.4,0.4,2.9,0.9,4.3,1.2c0.2,0.1,0.5,0.1,0.8,0.2c1.2,0.3,2.3,0.6,3.5,0.8c0.4,0.1,0.9,0.2,1.3,0.3
	c1.2,0.2,2.3,0.4,3.5,0.6c5.3,0.9,10.6,1.3,16.1,1.3c17.6,0,34.2-4.6,48.6-12.7c2.6-1.4,4.1-2.4,4.5-2.6c0.2-0.1,0.4-0.3,0.6-0.4
	C232.1,325.6,250.6,294.5,250.6,259.1z M75.5,259.1c0-41.4,33.7-75,75-75c41.4,0,75,33.7,75,75c0,18.3-6.6,35-17.5,48.1
	c-1.5-7.8-4.5-15.2-8.8-21.9c-4.5-6.9-11-12.1-18.5-14.8c0.7-2.7,1.1-5.4,1.1-8.3v-14c0-17.1-13.9-31-31-31s-31,13.9-31,31v14
	c0,2.8,0.4,5.6,1.1,8.2c-7.7,2.7-14.4,7.9-18.9,15c-4.4,6.8-7.4,14.3-8.9,22.1C82.2,294.3,75.5,277.5,75.5,259.1z M144.9,262.1v-14
	c0-3.3,2.7-6,6.1-6c3.3,0,6,2.7,6,6v14c0,3.3-2.6,5.9-5.8,6h-0.5C147.4,268,144.9,265.4,144.9,262.1z M133.5,293.1H150
	c0.3,0,0.6,0,0.9,0c0.3,0,0.6,0,0.9,0h16.1c4.2,0,8.1,2.1,10.4,5.7c3.9,6.1,6,13.2,6,20.4v6.8c-11.3,5.4-38.2,14.6-67.3,0.2v-7
	c0-7.3,2.1-14.3,6-20.4C125.4,295.2,129.2,293.1,133.5,293.1z"/>
<path class="st0" d="M337.3,327.2c6.9,0,12.5-5.6,12.5-12.5V295c0-6.9-5.6-12.5-12.5-12.5c-6.9,0-12.5,5.6-12.5,12.5v19.7
	C324.8,321.6,330.4,327.2,337.3,327.2z"/>
<path class="st0" d="M387.5,347.7c1.9,5,6.6,8.1,11.7,8.1c1.5,0,2.9-0.3,4.4-0.8l33.2-12.5c6.5-2.4,9.7-9.6,7.3-16.1
	c-2.4-6.5-9.6-9.7-16.1-7.3l-33.2,12.5C388.3,334.1,385,341.3,387.5,347.7z"/>
<path class="st0" d="M278.1,355.8c5.1,0,9.8-3.1,11.7-8.1c2.4-6.5-0.8-13.7-7.3-16.1l-33.2-12.5c-6.5-2.4-13.7,0.8-16.1,7.3
	c-2.4,6.5,0.8,13.7,7.3,16.1l33.2,12.5C275.1,355.6,276.6,355.8,278.1,355.8z"/>
<path class="st0" d="M451.2,490.1c-6-5.7-14.7-8.9-23-7.9c1.7-0.2-3.8-11.9-4.5-12.8c-6.1-8.3-18.1-13.7-28.2-10.8
	c0.8-0.2-1.8-6.1-10.9-12.2c-4.2-2.8-12.1-6.6-17.2-4.6c-0.1-0.9-0.1-1.8-0.1-2.7c15.5-9.8,25.3-27.1,25.3-45.8
	c0-30.5-25.3-55.1-56-54.1c-28.1,0.9-51.1,23.7-52.3,51.8c-0.8,20.6,9.8,39.4,27.3,49.3v40c0,0.6,0,1.2,0,1.8
	c0.2-1.1-6.7-4.2-7.6-4.7c-2.9-1.5-5.9-2.7-9-3.6c-6.2-1.7-12.9-1.6-18.5,1.8c-9.5,5.7-15.2,19-10.9,29.5l13,31.7
	c4,9.8,6.1,20.3,6.1,30.8v9.6c0,11.6,4.5,22.4,12.7,30.6l15.5,15.5c1.6,1.6,2.5,3.8,2.5,6.1v17.8c0,6.3,4.4,11.9,10.6,12.7
	c7.7,1.1,14.3-4.9,14.3-12.4v-18.2c0-8.9-3.5-17.5-9.8-23.8l-15.5-15.5c-3.5-3.5-5.4-8.1-5.4-13v-9.6c0-13.8-2.7-27.6-8-40.4
	l-5.3-13c-0.7-1.6,1.7-2.7,2.4-1.1c3.8,7.4,7.5,14.8,10.6,22.4c2.6,6.3,3.9,13.5,11.5,15.4c1.4,0.4,2.9,0.5,4.3,0.3
	c6.4-0.6,11.3-6,11.3-12.4V419.4c0-0.7,0.3-1.4,0.7-1.9l0.1-0.1c1-1.1,2.8-1.2,3.9-0.2c0.6,0.5,0.9,1.3,0.9,2.1v94.3
	c0,6.3,4.4,11.9,10.6,12.7c7.7,1.1,14.3-4.9,14.3-12.4v-44c0-0.8,0.9-2.8,3.1-2.8c1.6,0,2.6,2,2.6,2.7v48c0,6.3,4.4,11.9,10.6,12.7
	c7.7,1.1,14.3-4.8,14.3-12.4v-30c0-1.7,0.5-4.2,2.7-4.2c2.5,0,2.6,3.8,2.6,4.3v37.2c0,6.3,4.4,11.9,10.6,12.7
	c7.7,1.1,14.3-4.9,14.3-12.4v-14.1c0-0.9,0.3-1.8,0.8-2.6l0.7-1.1c0.8-1.2,2.6-1.4,3.7-0.4c0,0,0.9,0.5,0.9,0.8v86.3
	c0,3.2-1,6.3-2.9,8.9l-4.1,5.7c-3.5,4.8-5.3,10.5-5.3,16.5v21.5c0,6.3,4.4,11.9,10.6,12.7c7.7,1.1,14.3-4.9,14.3-12.4v-21.9
	c0-0.6,0.2-1.3,0.6-1.8l4.1-5.7c5-6.9,7.7-15.1,7.7-23.6c0,0,0-86.6,0-86.7C459.4,501.1,456.2,494.8,451.2,490.1z M338.4,390.2
	c-6.5,0.3-12.5,3.1-16.9,7.8l-3.4,3.7c-1.9,2.1-3.4,4.4-4.5,7c-3.4-5.5-5-12.2-4.1-19.2c1.7-13.2,12.6-23.7,25.9-25.1
	c17.4-1.8,32.2,11.9,32.2,29c0,4.6-1.1,9.1-3.1,13.1c-1.3-2.4-2.9-4.6-5-6.5l-3.7-3.4C351.1,392.2,344.9,389.9,338.4,390.2z"/>
<path class="st0" d="M328.5,255.2l0.4,0.3c2.3,1.7,4.9,2.5,7.5,2.5c3.8,0,7.5-1.7,10-4.9c4.2-5.5,3.1-13.3-2.4-17.5l-0.4-0.3
	c-5.5-4.2-13.3-3.1-17.5,2.4C322,243.2,323,251,328.5,255.2z"/>
<path class="st0" d="M566.8,199.1l0.4,0.3c2.3,1.7,4.9,2.5,7.5,2.5c3.8,0,7.5-1.7,10-4.9c4.2-5.5,3.1-13.3-2.4-17.5l-0.4-0.3
	c-5.5-4.2-13.3-3.1-17.5,2.4C560.3,187.1,561.4,194.9,566.8,199.1z"/>
</svg>
