<svg xmlns="http://www.w3.org/2000/svg" viewBox="0 0 448.9 103.53"><defs><style>.cls-1{fill:#ab852f;}.cls-2{fill:#ab852e;}.cls-3{fill:#fff;}</style></defs><title>Asset 5</title><g id="Layer_2" data-name="Layer 2"><g id="Layer_1-2" data-name="Layer 1"><path class="cls-1" d="M42,61.73H29.9L16.8,43.37,10.45,50V63H0V0H10.41V37.34l.16.07L27.46,19.25H40.21L23.91,36C29.94,44.54,36,53.08,42,61.73Z"/><path class="cls-1" d="M40.31,76.66H30.43V64.17h13a12.11,12.11,0,0,0,3.34,2.74c7,3.73,16.4,1.14,19-8.17a16.69,16.69,0,0,0-1.27-12.8,12,12,0,0,0-11.52-6.71c-5,.16-8.68,2.69-11.08,7.05A15.79,15.79,0,0,0,40,53.73c0,.34,0,.68,0,1,0,0,0,0-.08.12l-3.27-4.8q-3-4.42-6-8.84a1.44,1.44,0,0,1-.35-.87c0-2.56,0-5.12,0-7.71,3.35-3.26,6.7-7,10-10.21V38.53c.58-.71,1-1.3,1.52-1.87a17.35,17.35,0,0,1,11.78-6.45A20,20,0,0,1,68.8,34.82a22.27,22.27,0,0,1,7.83,14.5A27.93,27.93,0,0,1,75,64.45c-3,7.17-8.35,11.67-16.07,12.92a18.22,18.22,0,0,1-17.87-6.72c-.2-.25-.4-.5-.61-.74,0,0,0,0-.13-.11Z"/><path class="cls-2" d="M77.19,76.63V64.87h11.4V76.63Z"/><path class="cls-3" d="M244.24,55.12V77.06H238.8V46H244l16.49,21.24V46H266V77h-4.78C255.81,70,244.46,55.39,244.24,55.12Z"/><path class="cls-3" d="M332.35,77.71C323,77.71,316,70.89,316,61.62a16.21,16.21,0,0,1,16.56-16.47c9.36.17,16.28,7.11,16.25,16.32S341.78,77.71,332.35,77.71ZM343,61.46c0-6.25-4.71-11.13-10.66-11.1s-10.43,4.86-10.43,11.07,4.57,11.16,10.56,11.17S343,67.82,343,61.46Z"/><path class="cls-3" d="M380.31,77.13H373.7L366,66.29h-6.7V77.05h-5.66V45.84c2.89,0,14.72-.36,17.72.34,4.92,1.16,7.62,4.17,8,8.88s-2,8.09-6.6,10c-.18.08-.34.2-.73.42C374.76,69.3,377.45,73.1,380.31,77.13Zm-21-15.83c1.92,0,3.66,0,5.41,0s3.64.22,5.4-.43a5.18,5.18,0,0,0,3.58-5.08,4.9,4.9,0,0,0-4.28-4.65c-3.33-.65-6.67-.23-10.11-.31Z"/><path class="cls-3" d="M215.27,72.16H233V77h-23.4V45.93h23.2v4.8H215.27v8h15.55v5H215.27Z"/><path class="cls-3" d="M124.4,59.33l13.5,17.74h-6.82q-5.16-6.79-10.49-13.78l-4.91,5V77h-5.53V46h5.38V61.58l14.9-15.71h6.89Z"/><path class="cls-3" d="M153.65,45.59h5.24C163.43,56,168,66.41,172.63,77H166.7l-3.14-7.34h-14.7l-3.23,7.4h-5.74Zm2.52,6.75L151,64.49h10.45C159.69,60.46,158,56.6,156.17,52.34Z"/><path class="cls-3" d="M424.32,72.49l3.25-3.84c1.8,1.23,3.46,2.61,5.53,3.28a11.55,11.55,0,0,0,6.95.37,3.66,3.66,0,0,0,3-3.41,3.36,3.36,0,0,0-2.52-3.5,52.18,52.18,0,0,0-5.21-1.59,32.43,32.43,0,0,1-4.59-1.51c-3.19-1.39-5-3.67-5.12-7.28a8.43,8.43,0,0,1,4.68-8.3c5-2.67,13.08-1.41,17.41,2.7l-2.93,4.11c-2.8-1.88-5.62-3.38-9-3.18a5.92,5.92,0,0,0-2.69.74c-2.55,1.52-2.55,4.55,0,6a19.34,19.34,0,0,0,5.15,1.75,30.52,30.52,0,0,1,5.17,1.66c3.4,1.49,5.36,4,5.31,7.82a8.73,8.73,0,0,1-5.82,8.41C437.16,79,428.84,77.13,424.32,72.49Z"/><path class="cls-3" d="M396.55,72.49l3.26-3.84c1.8,1.23,3.45,2.61,5.52,3.28a11.55,11.55,0,0,0,6.95.37,3.66,3.66,0,0,0,3-3.41,3.36,3.36,0,0,0-2.52-3.5,52.18,52.18,0,0,0-5.21-1.59,32.43,32.43,0,0,1-4.59-1.51c-3.19-1.39-5-3.67-5.12-7.28a8.43,8.43,0,0,1,4.68-8.3c5-2.67,13.08-1.41,17.41,2.7L417,53.52c-2.8-1.88-5.62-3.38-9-3.18a5.92,5.92,0,0,0-2.69.74c-2.55,1.52-2.55,4.55,0,6a19.46,19.46,0,0,0,5.15,1.75,30.23,30.23,0,0,1,5.17,1.66c3.4,1.49,5.36,4,5.31,7.82a8.73,8.73,0,0,1-5.82,8.41C409.39,79,401.08,77.13,396.55,72.49Z"/><path class="cls-3" d="M385.73,45.91h5.39V77.15h-5.39Z"/><path class="cls-3" d="M154.51,38v5.17H149.1V38Z"/><path class="cls-3" d="M158,37.94h5.36v5.22H158Z"/><path class="cls-3" d="M176.5,45.85h12.12q7.29,0,11.44,4.26t4.15,11.53q0,7.26-4.4,11.4a15.77,15.77,0,0,1-11.23,4.13H176.5Zm5.37,5.08V72.11h6a11.28,11.28,0,0,0,7.71-2.81,10.87,10.87,0,0,0-.25-15.69,11.2,11.2,0,0,0-7.64-2.68Z"/><path class="cls-3" d="M301.13,77H287V45.66h13.72a12.45,12.45,0,0,1,7.42,2.07,6.74,6.74,0,0,1,2.88,5.8,7.13,7.13,0,0,1-1.06,4.29,7.24,7.24,0,0,1-3.41,2.72q6.18,2,6.18,7.07c0,3.14-1.07,5.48-3.22,7A13.93,13.93,0,0,1,301.13,77Zm-8.92-26.52V59h7.94a7,7,0,0,0,4.38-1.32,3.85,3.85,0,0,0,1.3-3.15v0c-.17-2.66-1.95-4-5.31-4Zm0,12.83V72.1H301q3.48,0,4.89-1.12a4,4,0,0,0,1.42-3.33c0-2.9-2.14-4.36-6.44-4.36Z"/><path class="cls-3" d="M110.31,96.18q0-4.67,4.3-4.67a4.46,4.46,0,0,1,3.06,1,3.57,3.57,0,0,1,1.13,2.79v.12h-2.22v-.12a1.79,1.79,0,0,0-.52-1.32,2,2,0,0,0-1.47-.53,1.77,1.77,0,0,0-1.55.67,3.75,3.75,0,0,0-.49,2.17v2.53a3.36,3.36,0,0,0,.52,2.08,2,2,0,0,0,1.61.64,1.88,1.88,0,0,0,1.48-.53,2.35,2.35,0,0,0,.47-1.6v-.56h-2.07V97h4.24v2q0,4.5-4.22,4.5c-2.85,0-4.27-1.55-4.27-4.67Z"/><path class="cls-3" d="M122.88,91.68v9.78H128v1.94h-7.36V91.68Z"/><path class="cls-3" d="M128.78,96.18q0-4.67,4.27-4.67a4.23,4.23,0,0,1,3.09,1.1,4.82,4.82,0,0,1,1.13,3.57v2.68a4.71,4.71,0,0,1-1.16,3.58,4.37,4.37,0,0,1-3.13,1.09c-2.8,0-4.2-1.55-4.2-4.67Zm6.27,2.65V96.3a3.72,3.72,0,0,0-.49-2.17,2.09,2.09,0,0,0-3.06,0A3.76,3.76,0,0,0,131,96.3v2.53a3.52,3.52,0,0,0,.48,2.08,1.82,1.82,0,0,0,1.55.64,1.76,1.76,0,0,0,1.51-.66A3.41,3.41,0,0,0,135.05,98.83Z"/><path class="cls-3" d="M147.43,100a3.24,3.24,0,0,1-1,2.48,3.8,3.8,0,0,1-2.65.88h-4.71V91.68h4.52a3.86,3.86,0,0,1,2.67.85,3.05,3.05,0,0,1,1,2.41,2.78,2.78,0,0,1-.39,1.44,2.58,2.58,0,0,1-1.08,1,2.67,2.67,0,0,1,1.21,1A3.08,3.08,0,0,1,147.43,100Zm-6.08-3.57h2.12a1.62,1.62,0,0,0,1.16-.37,1.29,1.29,0,0,0,.4-1,1.41,1.41,0,0,0-.4-1.09,1.62,1.62,0,0,0-1.16-.37h-2.12Zm3.85,3.41a1.43,1.43,0,0,0-.4-1.08,1.59,1.59,0,0,0-1.19-.4h-2.26v3.06h2.26a1.59,1.59,0,0,0,1.19-.41A1.61,1.61,0,0,0,145.2,99.88Z"/><path class="cls-3" d="M151.57,101.12l-.72,2.28h-2.34l4.16-11.72h1.82l4.18,11.72h-2.36l-.72-2.28Zm2-6.35-1.41,4.5H155Z"/><path class="cls-3" d="M162.13,91.68v9.78h5.13v1.94H159.9V91.68Z"/><path class="cls-3" d="M174.5,101.12l-.71,2.28h-2.34l4.16-11.72h1.81l4.18,11.72h-2.36l-.71-2.28Zm2-6.35-1.41,4.5h2.83Z"/><path class="cls-3" d="M185.06,91.68v9.78h5.13v1.94h-7.35V91.68Z"/><path class="cls-3" d="M194,91.68v9.78h5.13v1.94h-7.35V91.68Z"/><path class="cls-3" d="M203,91.68V103.4H200.8V91.68Z"/><path class="cls-3" d="M207.42,101.12l-.71,2.28h-2.35l4.16-11.72h1.82l4.18,11.72h-2.36l-.72-2.28Zm2-6.35-1.4,4.5h2.83Z"/><path class="cls-3" d="M224.52,103.4h-2.23L218,96.08v7.32h-2.22V91.68H218L222.29,99V91.68h2.23Z"/><path class="cls-3" d="M226.54,96.18q0-4.67,4.29-4.67a4.42,4.42,0,0,1,3.06,1A3.64,3.64,0,0,1,235,95.4v.12H232.8v-.1a1.93,1.93,0,0,0-.52-1.43,2,2,0,0,0-1.47-.53,1.77,1.77,0,0,0-1.55.67,3.76,3.76,0,0,0-.48,2.17v2.53a3.35,3.35,0,0,0,.5,2.07,1.86,1.86,0,0,0,1.57.65,1.94,1.94,0,0,0,1.45-.51,1.88,1.88,0,0,0,.5-1.39v-.14H235v.12a3.68,3.68,0,0,1-1.12,2.89,4.39,4.39,0,0,1-3.07,1c-2.84,0-4.26-1.55-4.26-4.67Z"/><path class="cls-3" d="M239.1,96.52h4.45v1.94H239.1v3h5.21v1.94h-7.44V91.68h7.44v1.94H239.1Z"/><path class="cls-3" d="M254.57,96.55v2H249.9v-2Z"/><path class="cls-3" d="M262.71,91.68V103.4h-2.22V91.68Z"/><path class="cls-3" d="M273.75,103.4h-2.22l-4.32-7.32v7.32H265V91.68h2.22L271.53,99V91.68h2.22Z"/><path class="cls-3" d="M280.05,91.68a4.23,4.23,0,0,1,3.08,1.09,4.78,4.78,0,0,1,1.13,3.56v2.4a4.74,4.74,0,0,1-1.16,3.57,4.35,4.35,0,0,1-3.12,1.1h-4.06V91.68Zm1.48,9.12a3.44,3.44,0,0,0,.5-2.09V96.45a3.68,3.68,0,0,0-.49-2.16,1.74,1.74,0,0,0-1.51-.67h-1.89v7.84H280A1.75,1.75,0,0,0,281.53,100.8Z"/><path class="cls-3" d="M288.33,96.52h4.45v1.94h-4.45v3h5.22v1.94h-7.44V91.68h7.44v1.94h-5.22Z"/><path class="cls-3" d="M303.53,95.36a3.41,3.41,0,0,1-1,2.61,3.91,3.91,0,0,1-2.81,1h-2.16v4.45h-2.22V91.68h4.38a3.91,3.91,0,0,1,2.81,1A3.56,3.56,0,0,1,303.53,95.36Zm-2.23,0a1.75,1.75,0,0,0-.45-1.29,1.7,1.7,0,0,0-1.26-.45h-2.06V97h2.06a1.77,1.77,0,0,0,1.25-.43A1.54,1.54,0,0,0,301.3,95.36Z"/><path class="cls-3" d="M307.33,96.52h4.45v1.94h-4.45v3h5.21v1.94H305.1V91.68h7.44v1.94h-5.21Z"/><path class="cls-3" d="M323.07,103.4h-2.23l-4.31-7.32v7.32h-2.22V91.68h2.22L320.84,99V91.68h2.23Z"/><path class="cls-3" d="M329.36,91.68a4.26,4.26,0,0,1,3.09,1.09,4.78,4.78,0,0,1,1.13,3.56v2.4a4.74,4.74,0,0,1-1.16,3.57,4.35,4.35,0,0,1-3.12,1.1h-4.06V91.68Zm1.49,9.12a3.44,3.44,0,0,0,.5-2.09V96.45a3.68,3.68,0,0,0-.49-2.16,1.74,1.74,0,0,0-1.51-.67h-1.89v7.84h1.89A1.75,1.75,0,0,0,330.85,100.8Z"/><path class="cls-3" d="M337.65,96.52h4.45v1.94h-4.45v3h5.21v1.94h-7.44V91.68h7.44v1.94h-5.21Z"/><path class="cls-3" d="M353.39,103.4h-2.23l-4.31-7.32v7.32h-2.22V91.68h2.22L351.16,99V91.68h2.23Z"/><path class="cls-3" d="M359.89,93.62v9.78h-2.24V93.62h-3V91.68h8.22v1.94Z"/><path class="cls-3" d="M370.26,91.68v9.78h5.13v1.94H368V91.68Z"/><path class="cls-3" d="M379.09,101.12l-.71,2.28H376l4.16-11.72H382l4.18,11.72h-2.36l-.72-2.28Zm2-6.35-1.41,4.5h2.84Z"/><path class="cls-3" d="M397,103.4h-2l-2.14-8.68-2.12,8.68h-2l-2.89-11.72H388L389.8,100l1.72-8.27h2.77l1.8,8.27,1.66-8.27h2.07Z"/><path class="cls-3" d="M407.17,96.62h4.47v1.94h-4.47v4.84h-2.23V91.68h7.44v1.94h-5.21Z"/><path class="cls-3" d="M416.22,91.68V103.4H414V91.68Z"/><path class="cls-3" d="M420.72,98.64v4.76h-2.23V91.68h4.45a3.88,3.88,0,0,1,2.74.94,3.34,3.34,0,0,1,1,2.56,3.39,3.39,0,0,1-.53,1.95,3.11,3.11,0,0,1-1.54,1.17l2.55,5.1h-2.56l-2.23-4.76Zm2.1-1.85a1.73,1.73,0,0,0,1.22-.41,1.59,1.59,0,0,0,.43-1.2A1.51,1.51,0,0,0,424,94a1.7,1.7,0,0,0-1.21-.42h-2.1v3.17Z"/><path class="cls-3" d="M439.11,103.4h-2.23v-7l-2.22,4.69h-1.5L430.9,96.4v7h-2.22V91.68h2.22l3,6.47,3-6.47h2.23Z"/><path class="cls-3" d="M440.61,99.83h2.11a2,2,0,0,0,.62,1.37,2.37,2.37,0,0,0,1.48.4c1.26,0,1.89-.52,1.89-1.55a1.45,1.45,0,0,0-.37-1.06,2.23,2.23,0,0,0-1.19-.5L444,98.3q-3.17-.52-3.17-3.26A3.28,3.28,0,0,1,442,92.46a4.17,4.17,0,0,1,2.86-.95,3.93,3.93,0,0,1,2.74.92A3.75,3.75,0,0,1,448.7,95h-2.14a1.72,1.72,0,0,0-.5-1.24,1.88,1.88,0,0,0-1.29-.39,1.86,1.86,0,0,0-1.3.4,1.37,1.37,0,0,0-.45,1.09,1.25,1.25,0,0,0,.39,1,2.47,2.47,0,0,0,1.23.51l1.24.22q3,.54,3,3.3a3.33,3.33,0,0,1-1.13,2.7,4.65,4.65,0,0,1-3,.93,4.27,4.27,0,0,1-2.94-.94A3.85,3.85,0,0,1,440.61,99.83Z"/></g></g></svg>